<mxfile host="65bd71144e">
    <diagram name="Page-1" id="bcUVMIEKa_rK9hjM4VMe">
        <mxGraphModel dx="517" dy="404" grid="1" gridSize="10" guides="1" tooltips="1" connect="1" arrows="1" fold="1" page="1" pageScale="1" pageWidth="850" pageHeight="1100" math="0" shadow="0">
            <root>
                <mxCell id="0"/>
                <mxCell id="1" parent="0"/>
                <mxCell id="u02WTMG_zB_Rgp9r-icY-11" value="" style="rounded=0;whiteSpace=wrap;html=1;movable=0;resizable=0;rotatable=0;deletable=0;editable=0;locked=1;connectable=0;" parent="1" vertex="1">
                    <mxGeometry x="110" y="140" width="1320" height="900" as="geometry"/>
                </mxCell>
                <mxCell id="u02WTMG_zB_Rgp9r-icY-12" value="" style="group" parent="1" vertex="1" connectable="0">
                    <mxGeometry x="220" y="200" width="80" height="98" as="geometry"/>
                </mxCell>
                <mxCell id="u02WTMG_zB_Rgp9r-icY-1" value="" style="rounded=0;whiteSpace=wrap;html=1;" parent="u02WTMG_zB_Rgp9r-icY-12" vertex="1">
                    <mxGeometry width="80" height="90" as="geometry"/>
                </mxCell>
                <mxCell id="u02WTMG_zB_Rgp9r-icY-2" value="Q" style="text;html=1;align=center;verticalAlign=middle;whiteSpace=wrap;rounded=0;fontSize=9;" parent="u02WTMG_zB_Rgp9r-icY-12" vertex="1">
                    <mxGeometry x="50" y="10" width="30" height="30" as="geometry"/>
                </mxCell>
                <mxCell id="u02WTMG_zB_Rgp9r-icY-4" value="" style="triangle;whiteSpace=wrap;html=1;" parent="u02WTMG_zB_Rgp9r-icY-12" vertex="1">
                    <mxGeometry y="55" width="15" height="20" as="geometry"/>
                </mxCell>
                <mxCell id="EOWlDWaqW3UNMmOw9FuK-22" style="edgeStyle=orthogonalEdgeStyle;rounded=0;orthogonalLoop=1;jettySize=auto;html=1;endArrow=none;endFill=0;" parent="u02WTMG_zB_Rgp9r-icY-12" source="u02WTMG_zB_Rgp9r-icY-5" edge="1">
                    <mxGeometry relative="1" as="geometry">
                        <mxPoint x="-160" y="25" as="targetPoint"/>
                    </mxGeometry>
                </mxCell>
                <mxCell id="u02WTMG_zB_Rgp9r-icY-5" value="D" style="text;html=1;align=center;verticalAlign=middle;whiteSpace=wrap;rounded=0;fontSize=9;" parent="u02WTMG_zB_Rgp9r-icY-12" vertex="1">
                    <mxGeometry y="10" width="20" height="30" as="geometry"/>
                </mxCell>
                <mxCell id="u02WTMG_zB_Rgp9r-icY-6" value="clock" style="text;html=1;align=center;verticalAlign=middle;whiteSpace=wrap;rounded=0;fontSize=9;" parent="u02WTMG_zB_Rgp9r-icY-12" vertex="1">
                    <mxGeometry x="10" y="50" width="40" height="30" as="geometry"/>
                </mxCell>
                <mxCell id="u02WTMG_zB_Rgp9r-icY-9" value="my_register" style="text;html=1;align=center;verticalAlign=middle;whiteSpace=wrap;rounded=0;fontSize=9;fontColor=#007FFF;" parent="u02WTMG_zB_Rgp9r-icY-12" vertex="1">
                    <mxGeometry x="25" y="68" width="55" height="30" as="geometry"/>
                </mxCell>
                <mxCell id="u02WTMG_zB_Rgp9r-icY-40" value="" style="triangle;whiteSpace=wrap;html=1;" parent="1" vertex="1">
                    <mxGeometry x="110" y="335" width="15" height="20" as="geometry"/>
                </mxCell>
                <mxCell id="u02WTMG_zB_Rgp9r-icY-41" value="clock" style="text;html=1;align=center;verticalAlign=middle;whiteSpace=wrap;rounded=0;fontSize=9;" parent="1" vertex="1">
                    <mxGeometry x="125" y="330" width="35" height="15" as="geometry"/>
                </mxCell>
                <mxCell id="u02WTMG_zB_Rgp9r-icY-42" style="edgeStyle=orthogonalEdgeStyle;rounded=0;orthogonalLoop=1;jettySize=auto;html=1;endArrow=none;endFill=0;entryX=1;entryY=0.5;entryDx=0;entryDy=0;strokeColor=#FF0000;" parent="1" source="u02WTMG_zB_Rgp9r-icY-14" target="u02WTMG_zB_Rgp9r-icY-40" edge="1">
                    <mxGeometry relative="1" as="geometry">
                        <mxPoint x="270" y="345" as="targetPoint"/>
                    </mxGeometry>
                </mxCell>
                <mxCell id="u02WTMG_zB_Rgp9r-icY-44" value="" style="group" parent="1" vertex="1" connectable="0">
                    <mxGeometry x="620" y="320" width="210" height="195" as="geometry"/>
                </mxCell>
                <mxCell id="u02WTMG_zB_Rgp9r-icY-13" value="" style="rounded=0;whiteSpace=wrap;html=1;" parent="u02WTMG_zB_Rgp9r-icY-44" vertex="1">
                    <mxGeometry width="210" height="190" as="geometry"/>
                </mxCell>
                <mxCell id="u02WTMG_zB_Rgp9r-icY-14" value="" style="triangle;whiteSpace=wrap;html=1;" parent="u02WTMG_zB_Rgp9r-icY-44" vertex="1">
                    <mxGeometry y="15" width="15" height="20" as="geometry"/>
                </mxCell>
                <mxCell id="u02WTMG_zB_Rgp9r-icY-15" value="clock" style="text;html=1;align=center;verticalAlign=middle;whiteSpace=wrap;rounded=0;fontSize=9;" parent="u02WTMG_zB_Rgp9r-icY-44" vertex="1">
                    <mxGeometry x="10" y="10" width="40" height="30" as="geometry"/>
                </mxCell>
                <mxCell id="u02WTMG_zB_Rgp9r-icY-23" value="aux_read_addr" style="text;html=1;align=center;verticalAlign=middle;whiteSpace=wrap;rounded=0;fontSize=9;" parent="u02WTMG_zB_Rgp9r-icY-44" vertex="1">
                    <mxGeometry y="85" width="70" height="30" as="geometry"/>
                </mxCell>
                <mxCell id="u02WTMG_zB_Rgp9r-icY-24" value="aux_read_data" style="text;html=1;align=center;verticalAlign=middle;whiteSpace=wrap;rounded=0;fontSize=9;" parent="u02WTMG_zB_Rgp9r-icY-44" vertex="1">
                    <mxGeometry y="115" width="70" height="30" as="geometry"/>
                </mxCell>
                <mxCell id="u02WTMG_zB_Rgp9r-icY-25" value="write_addr" style="text;html=1;align=center;verticalAlign=middle;whiteSpace=wrap;rounded=0;fontSize=9;" parent="u02WTMG_zB_Rgp9r-icY-44" vertex="1">
                    <mxGeometry x="150" y="15" width="60" height="30" as="geometry"/>
                </mxCell>
                <mxCell id="u02WTMG_zB_Rgp9r-icY-68" style="edgeStyle=orthogonalEdgeStyle;rounded=0;orthogonalLoop=1;jettySize=auto;html=1;endArrow=none;endFill=0;" parent="u02WTMG_zB_Rgp9r-icY-44" source="u02WTMG_zB_Rgp9r-icY-26" edge="1">
                    <mxGeometry relative="1" as="geometry">
                        <mxPoint x="860" y="60" as="targetPoint"/>
                    </mxGeometry>
                </mxCell>
                <mxCell id="u02WTMG_zB_Rgp9r-icY-26" value="read_addr" style="text;html=1;align=center;verticalAlign=middle;whiteSpace=wrap;rounded=0;fontSize=9;" parent="u02WTMG_zB_Rgp9r-icY-44" vertex="1">
                    <mxGeometry x="150" y="45" width="60" height="30" as="geometry"/>
                </mxCell>
                <mxCell id="u02WTMG_zB_Rgp9r-icY-67" style="edgeStyle=orthogonalEdgeStyle;rounded=0;orthogonalLoop=1;jettySize=auto;html=1;endArrow=none;endFill=0;" parent="u02WTMG_zB_Rgp9r-icY-44" source="u02WTMG_zB_Rgp9r-icY-27" edge="1">
                    <mxGeometry relative="1" as="geometry">
                        <mxPoint x="850" y="90" as="targetPoint"/>
                    </mxGeometry>
                </mxCell>
                <mxCell id="u02WTMG_zB_Rgp9r-icY-27" value="read_data" style="text;html=1;align=center;verticalAlign=middle;whiteSpace=wrap;rounded=0;fontSize=9;" parent="u02WTMG_zB_Rgp9r-icY-44" vertex="1">
                    <mxGeometry x="150" y="75" width="60" height="30" as="geometry"/>
                </mxCell>
                <mxCell id="u02WTMG_zB_Rgp9r-icY-28" value="write_enable" style="text;html=1;align=center;verticalAlign=middle;whiteSpace=wrap;rounded=0;fontSize=9;" parent="u02WTMG_zB_Rgp9r-icY-44" vertex="1">
                    <mxGeometry x="140" y="105" width="70" height="30" as="geometry"/>
                </mxCell>
                <mxCell id="u02WTMG_zB_Rgp9r-icY-29" value="write_data" style="text;html=1;align=center;verticalAlign=middle;whiteSpace=wrap;rounded=0;fontSize=9;" parent="u02WTMG_zB_Rgp9r-icY-44" vertex="1">
                    <mxGeometry x="150" y="135" width="60" height="30" as="geometry"/>
                </mxCell>
                <mxCell id="u02WTMG_zB_Rgp9r-icY-38" value="triple_port_ram" style="text;html=1;align=center;verticalAlign=middle;whiteSpace=wrap;rounded=0;fontSize=9;fontColor=#007FFF;" parent="u02WTMG_zB_Rgp9r-icY-44" vertex="1">
                    <mxGeometry x="140" y="165" width="67.5" height="30" as="geometry"/>
                </mxCell>
                <mxCell id="u02WTMG_zB_Rgp9r-icY-56" value="" style="group;movable=1;resizable=1;rotatable=1;deletable=1;editable=1;locked=0;connectable=1;" parent="1" vertex="1" connectable="0">
                    <mxGeometry x="220" y="750" width="80" height="98" as="geometry"/>
                </mxCell>
                <mxCell id="u02WTMG_zB_Rgp9r-icY-57" value="" style="rounded=0;whiteSpace=wrap;html=1;movable=1;resizable=1;rotatable=1;deletable=1;editable=1;locked=0;connectable=1;" parent="u02WTMG_zB_Rgp9r-icY-56" vertex="1">
                    <mxGeometry width="80" height="90" as="geometry"/>
                </mxCell>
                <mxCell id="u02WTMG_zB_Rgp9r-icY-58" value="Q" style="text;html=1;align=center;verticalAlign=middle;whiteSpace=wrap;rounded=0;fontSize=9;" parent="u02WTMG_zB_Rgp9r-icY-56" vertex="1">
                    <mxGeometry x="50" y="10" width="30" height="30" as="geometry"/>
                </mxCell>
                <mxCell id="u02WTMG_zB_Rgp9r-icY-59" value="" style="triangle;whiteSpace=wrap;html=1;" parent="u02WTMG_zB_Rgp9r-icY-56" vertex="1">
                    <mxGeometry y="55" width="15" height="20" as="geometry"/>
                </mxCell>
                <mxCell id="u02WTMG_zB_Rgp9r-icY-118" style="edgeStyle=orthogonalEdgeStyle;rounded=0;orthogonalLoop=1;jettySize=auto;html=1;endArrow=none;endFill=0;" parent="u02WTMG_zB_Rgp9r-icY-56" source="u02WTMG_zB_Rgp9r-icY-60" edge="1">
                    <mxGeometry relative="1" as="geometry">
                        <mxPoint x="-160" y="25" as="targetPoint"/>
                    </mxGeometry>
                </mxCell>
                <mxCell id="u02WTMG_zB_Rgp9r-icY-60" value="D" style="text;html=1;align=center;verticalAlign=middle;whiteSpace=wrap;rounded=0;fontSize=9;" parent="u02WTMG_zB_Rgp9r-icY-56" vertex="1">
                    <mxGeometry y="10" width="20" height="30" as="geometry"/>
                </mxCell>
                <mxCell id="u02WTMG_zB_Rgp9r-icY-61" value="clock" style="text;html=1;align=center;verticalAlign=middle;whiteSpace=wrap;rounded=0;fontSize=9;" parent="u02WTMG_zB_Rgp9r-icY-56" vertex="1">
                    <mxGeometry x="10" y="50" width="40" height="30" as="geometry"/>
                </mxCell>
                <mxCell id="u02WTMG_zB_Rgp9r-icY-62" value="my_register" style="text;html=1;align=center;verticalAlign=middle;whiteSpace=wrap;rounded=0;fontSize=9;fontColor=#007FFF;" parent="u02WTMG_zB_Rgp9r-icY-56" vertex="1">
                    <mxGeometry x="25" y="68" width="55" height="30" as="geometry"/>
                </mxCell>
                <mxCell id="u02WTMG_zB_Rgp9r-icY-63" style="edgeStyle=orthogonalEdgeStyle;rounded=0;orthogonalLoop=1;jettySize=auto;html=1;entryX=1;entryY=0.5;entryDx=0;entryDy=0;endArrow=none;endFill=0;strokeColor=#FF0000;" parent="1" source="u02WTMG_zB_Rgp9r-icY-59" target="u02WTMG_zB_Rgp9r-icY-40" edge="1">
                    <mxGeometry relative="1" as="geometry">
                        <Array as="points">
                            <mxPoint x="200" y="815"/>
                            <mxPoint x="200" y="345"/>
                        </Array>
                    </mxGeometry>
                </mxCell>
                <mxCell id="u02WTMG_zB_Rgp9r-icY-66" style="edgeStyle=orthogonalEdgeStyle;rounded=0;orthogonalLoop=1;jettySize=auto;html=1;entryX=1;entryY=0.5;entryDx=0;entryDy=0;endArrow=none;endFill=0;strokeColor=#FF0000;exitX=0;exitY=0.5;exitDx=0;exitDy=0;" parent="1" source="u02WTMG_zB_Rgp9r-icY-4" target="u02WTMG_zB_Rgp9r-icY-40" edge="1">
                    <mxGeometry relative="1" as="geometry">
                        <Array as="points">
                            <mxPoint x="200" y="265"/>
                            <mxPoint x="200" y="345"/>
                        </Array>
                    </mxGeometry>
                </mxCell>
                <mxCell id="u02WTMG_zB_Rgp9r-icY-69" value="read_addr" style="text;html=1;align=center;verticalAlign=middle;whiteSpace=wrap;rounded=0;fontSize=9;" parent="1" vertex="1">
                    <mxGeometry x="1360" y="355" width="60" height="30" as="geometry"/>
                </mxCell>
                <mxCell id="u02WTMG_zB_Rgp9r-icY-84" value="read_data" style="text;html=1;align=center;verticalAlign=middle;whiteSpace=wrap;rounded=0;fontSize=9;" parent="1" vertex="1">
                    <mxGeometry x="1360" y="385" width="60" height="30" as="geometry"/>
                </mxCell>
                <mxCell id="u02WTMG_zB_Rgp9r-icY-114" value="'1'" style="text;html=1;align=center;verticalAlign=middle;whiteSpace=wrap;rounded=0;fontSize=9;" parent="1" vertex="1">
                    <mxGeometry x="860" y="427" width="20" height="26" as="geometry"/>
                </mxCell>
                <mxCell id="u02WTMG_zB_Rgp9r-icY-116" style="edgeStyle=orthogonalEdgeStyle;rounded=0;orthogonalLoop=1;jettySize=auto;html=1;entryX=0;entryY=0.5;entryDx=0;entryDy=0;endArrow=none;endFill=0;" parent="1" source="u02WTMG_zB_Rgp9r-icY-28" target="u02WTMG_zB_Rgp9r-icY-114" edge="1">
                    <mxGeometry relative="1" as="geometry"/>
                </mxCell>
                <mxCell id="u02WTMG_zB_Rgp9r-icY-117" style="edgeStyle=orthogonalEdgeStyle;rounded=0;orthogonalLoop=1;jettySize=auto;html=1;entryX=1;entryY=0.5;entryDx=0;entryDy=0;endArrow=none;endFill=0;" parent="1" source="u02WTMG_zB_Rgp9r-icY-23" target="u02WTMG_zB_Rgp9r-icY-2" edge="1">
                    <mxGeometry relative="1" as="geometry"/>
                </mxCell>
                <mxCell id="u02WTMG_zB_Rgp9r-icY-119" value="&lt;div&gt;write_inc&lt;/div&gt;" style="text;html=1;align=center;verticalAlign=middle;whiteSpace=wrap;rounded=0;fontSize=9;" parent="1" vertex="1">
                    <mxGeometry x="110" y="750" width="50" height="30" as="geometry"/>
                </mxCell>
                <mxCell id="u02WTMG_zB_Rgp9r-icY-131" value="&lt;font color=&quot;#e014ff&quot;&gt;s_write_inc_stable&lt;/font&gt;" style="text;html=1;align=center;verticalAlign=middle;whiteSpace=wrap;rounded=0;fontSize=9;" parent="1" vertex="1">
                    <mxGeometry x="310" y="750" width="80" height="30" as="geometry"/>
                </mxCell>
                <mxCell id="u02WTMG_zB_Rgp9r-icY-133" value="" style="group" parent="1" vertex="1" connectable="0">
                    <mxGeometry x="400" y="750" width="80" height="98" as="geometry"/>
                </mxCell>
                <mxCell id="u02WTMG_zB_Rgp9r-icY-134" value="" style="rounded=0;whiteSpace=wrap;html=1;" parent="u02WTMG_zB_Rgp9r-icY-133" vertex="1">
                    <mxGeometry width="80" height="90" as="geometry"/>
                </mxCell>
                <mxCell id="u02WTMG_zB_Rgp9r-icY-135" value="Q" style="text;html=1;align=center;verticalAlign=middle;whiteSpace=wrap;rounded=0;fontSize=9;" parent="u02WTMG_zB_Rgp9r-icY-133" vertex="1">
                    <mxGeometry x="50" y="10" width="30" height="30" as="geometry"/>
                </mxCell>
                <mxCell id="u02WTMG_zB_Rgp9r-icY-136" value="" style="triangle;whiteSpace=wrap;html=1;" parent="u02WTMG_zB_Rgp9r-icY-133" vertex="1">
                    <mxGeometry y="55" width="15" height="20" as="geometry"/>
                </mxCell>
                <mxCell id="u02WTMG_zB_Rgp9r-icY-138" value="D" style="text;html=1;align=center;verticalAlign=middle;whiteSpace=wrap;rounded=0;fontSize=9;" parent="u02WTMG_zB_Rgp9r-icY-133" vertex="1">
                    <mxGeometry y="10" width="20" height="30" as="geometry"/>
                </mxCell>
                <mxCell id="u02WTMG_zB_Rgp9r-icY-139" value="clock" style="text;html=1;align=center;verticalAlign=middle;whiteSpace=wrap;rounded=0;fontSize=9;movable=0;resizable=0;rotatable=0;deletable=0;editable=0;locked=1;connectable=0;" parent="u02WTMG_zB_Rgp9r-icY-133" vertex="1">
                    <mxGeometry x="10" y="50" width="40" height="30" as="geometry"/>
                </mxCell>
                <mxCell id="u02WTMG_zB_Rgp9r-icY-140" value="my_register" style="text;html=1;align=center;verticalAlign=middle;whiteSpace=wrap;rounded=0;fontSize=9;fontColor=#007FFF;" parent="u02WTMG_zB_Rgp9r-icY-133" vertex="1">
                    <mxGeometry x="25" y="68" width="55" height="30" as="geometry"/>
                </mxCell>
                <mxCell id="u02WTMG_zB_Rgp9r-icY-143" style="edgeStyle=orthogonalEdgeStyle;rounded=0;orthogonalLoop=1;jettySize=auto;html=1;entryX=1;entryY=0.5;entryDx=0;entryDy=0;endArrow=none;endFill=0;" parent="1" source="u02WTMG_zB_Rgp9r-icY-138" target="u02WTMG_zB_Rgp9r-icY-58" edge="1">
                    <mxGeometry relative="1" as="geometry"/>
                </mxCell>
                <mxCell id="u02WTMG_zB_Rgp9r-icY-144" value="" style="group" parent="1" vertex="1" connectable="0">
                    <mxGeometry x="660" y="730" width="80" height="108" as="geometry"/>
                </mxCell>
                <mxCell id="u02WTMG_zB_Rgp9r-icY-47" value="" style="rounded=0;whiteSpace=wrap;html=1;" parent="u02WTMG_zB_Rgp9r-icY-144" vertex="1">
                    <mxGeometry width="80" height="100" as="geometry"/>
                </mxCell>
                <mxCell id="u02WTMG_zB_Rgp9r-icY-48" value="c_out" style="text;html=1;align=center;verticalAlign=middle;whiteSpace=wrap;rounded=0;fontSize=9;" parent="u02WTMG_zB_Rgp9r-icY-144" vertex="1">
                    <mxGeometry x="50" width="30" height="30" as="geometry"/>
                </mxCell>
                <mxCell id="u02WTMG_zB_Rgp9r-icY-50" value="a" style="text;html=1;align=center;verticalAlign=middle;whiteSpace=wrap;rounded=0;fontSize=9;" parent="u02WTMG_zB_Rgp9r-icY-144" vertex="1">
                    <mxGeometry width="20" height="30" as="geometry"/>
                </mxCell>
                <mxCell id="u02WTMG_zB_Rgp9r-icY-52" value="adder_n" style="text;html=1;align=center;verticalAlign=middle;whiteSpace=wrap;rounded=0;fontSize=9;fontColor=#007FFF;" parent="u02WTMG_zB_Rgp9r-icY-144" vertex="1">
                    <mxGeometry x="30" y="78" width="50" height="30" as="geometry"/>
                </mxCell>
                <mxCell id="u02WTMG_zB_Rgp9r-icY-53" value="b" style="text;html=1;align=center;verticalAlign=middle;whiteSpace=wrap;rounded=0;fontSize=9;" parent="u02WTMG_zB_Rgp9r-icY-144" vertex="1">
                    <mxGeometry y="30" width="20" height="30" as="geometry"/>
                </mxCell>
                <mxCell id="u02WTMG_zB_Rgp9r-icY-54" value="c_in" style="text;html=1;align=center;verticalAlign=middle;whiteSpace=wrap;rounded=0;fontSize=9;" parent="u02WTMG_zB_Rgp9r-icY-144" vertex="1">
                    <mxGeometry y="60" width="30" height="30" as="geometry"/>
                </mxCell>
                <mxCell id="u02WTMG_zB_Rgp9r-icY-55" value="s" style="text;html=1;align=center;verticalAlign=middle;whiteSpace=wrap;rounded=0;fontSize=9;" parent="u02WTMG_zB_Rgp9r-icY-144" vertex="1">
                    <mxGeometry x="60" y="40" width="20" height="30" as="geometry"/>
                </mxCell>
                <mxCell id="u02WTMG_zB_Rgp9r-icY-145" style="edgeStyle=orthogonalEdgeStyle;rounded=0;orthogonalLoop=1;jettySize=auto;html=1;entryX=0;entryY=0.5;entryDx=0;entryDy=0;endArrow=none;endFill=0;" parent="1" source="u02WTMG_zB_Rgp9r-icY-135" target="u02WTMG_zB_Rgp9r-icY-53" edge="1">
                    <mxGeometry relative="1" as="geometry"/>
                </mxCell>
                <mxCell id="u02WTMG_zB_Rgp9r-icY-146" value="&lt;font color=&quot;#e014ff&quot;&gt;s_delayed_write_inc_stable&lt;/font&gt;" style="text;html=1;align=center;verticalAlign=middle;whiteSpace=wrap;rounded=0;fontSize=9;" parent="1" vertex="1">
                    <mxGeometry x="520" y="750" width="120" height="30" as="geometry"/>
                </mxCell>
                <mxCell id="u02WTMG_zB_Rgp9r-icY-157" value="(open)" style="text;html=1;align=center;verticalAlign=middle;whiteSpace=wrap;rounded=0;fontSize=9;" parent="1" vertex="1">
                    <mxGeometry x="800" y="730" width="30" height="30" as="geometry"/>
                </mxCell>
                <mxCell id="u02WTMG_zB_Rgp9r-icY-158" style="edgeStyle=orthogonalEdgeStyle;rounded=0;orthogonalLoop=1;jettySize=auto;html=1;entryX=0;entryY=0.5;entryDx=0;entryDy=0;endArrow=none;endFill=0;" parent="1" source="u02WTMG_zB_Rgp9r-icY-48" target="u02WTMG_zB_Rgp9r-icY-157" edge="1">
                    <mxGeometry relative="1" as="geometry"/>
                </mxCell>
                <mxCell id="EOWlDWaqW3UNMmOw9FuK-2" value="" style="group" parent="1" vertex="1" connectable="0">
                    <mxGeometry x="1020" y="200" width="80" height="98" as="geometry"/>
                </mxCell>
                <mxCell id="EOWlDWaqW3UNMmOw9FuK-3" value="" style="rounded=0;whiteSpace=wrap;html=1;" parent="EOWlDWaqW3UNMmOw9FuK-2" vertex="1">
                    <mxGeometry width="80" height="90" as="geometry"/>
                </mxCell>
                <mxCell id="EOWlDWaqW3UNMmOw9FuK-4" value="Q" style="text;html=1;align=center;verticalAlign=middle;whiteSpace=wrap;rounded=0;fontSize=9;" parent="EOWlDWaqW3UNMmOw9FuK-2" vertex="1">
                    <mxGeometry x="50" y="10" width="30" height="30" as="geometry"/>
                </mxCell>
                <mxCell id="EOWlDWaqW3UNMmOw9FuK-5" value="" style="triangle;whiteSpace=wrap;html=1;" parent="EOWlDWaqW3UNMmOw9FuK-2" vertex="1">
                    <mxGeometry y="55" width="15" height="20" as="geometry"/>
                </mxCell>
                <mxCell id="EOWlDWaqW3UNMmOw9FuK-6" value="D" style="text;html=1;align=center;verticalAlign=middle;whiteSpace=wrap;rounded=0;fontSize=9;" parent="EOWlDWaqW3UNMmOw9FuK-2" vertex="1">
                    <mxGeometry y="10" width="20" height="30" as="geometry"/>
                </mxCell>
                <mxCell id="EOWlDWaqW3UNMmOw9FuK-7" value="clock" style="text;html=1;align=center;verticalAlign=middle;whiteSpace=wrap;rounded=0;fontSize=9;" parent="EOWlDWaqW3UNMmOw9FuK-2" vertex="1">
                    <mxGeometry x="10" y="50" width="40" height="30" as="geometry"/>
                </mxCell>
                <mxCell id="EOWlDWaqW3UNMmOw9FuK-8" value="my_register" style="text;html=1;align=center;verticalAlign=middle;whiteSpace=wrap;rounded=0;fontSize=9;fontColor=#007FFF;" parent="EOWlDWaqW3UNMmOw9FuK-2" vertex="1">
                    <mxGeometry x="25" y="68" width="55" height="30" as="geometry"/>
                </mxCell>
                <mxCell id="EOWlDWaqW3UNMmOw9FuK-10" style="edgeStyle=orthogonalEdgeStyle;rounded=0;orthogonalLoop=1;jettySize=auto;html=1;endArrow=none;endFill=0;exitX=0;exitY=0.5;exitDx=0;exitDy=0;" parent="1" source="EOWlDWaqW3UNMmOw9FuK-6" target="u02WTMG_zB_Rgp9r-icY-2" edge="1">
                    <mxGeometry relative="1" as="geometry">
                        <Array as="points"/>
                    </mxGeometry>
                </mxCell>
                <mxCell id="EOWlDWaqW3UNMmOw9FuK-13" value="" style="group" parent="1" vertex="1" connectable="0">
                    <mxGeometry x="1080" y="850" width="110" height="108" as="geometry"/>
                </mxCell>
                <mxCell id="EOWlDWaqW3UNMmOw9FuK-14" value="" style="rounded=0;whiteSpace=wrap;html=1;" parent="EOWlDWaqW3UNMmOw9FuK-13" vertex="1">
                    <mxGeometry width="100" height="100" as="geometry"/>
                </mxCell>
                <mxCell id="EOWlDWaqW3UNMmOw9FuK-15" value="vec1" style="text;html=1;align=center;verticalAlign=middle;whiteSpace=wrap;rounded=0;fontSize=9;" parent="EOWlDWaqW3UNMmOw9FuK-13" vertex="1">
                    <mxGeometry x="70" width="30" height="30" as="geometry"/>
                </mxCell>
                <mxCell id="EOWlDWaqW3UNMmOw9FuK-16" value="equal" style="text;html=1;align=center;verticalAlign=middle;whiteSpace=wrap;rounded=0;fontSize=9;" parent="EOWlDWaqW3UNMmOw9FuK-13" vertex="1">
                    <mxGeometry width="40" height="30" as="geometry"/>
                </mxCell>
                <mxCell id="EOWlDWaqW3UNMmOw9FuK-17" value="vector_comparator" style="text;html=1;align=center;verticalAlign=middle;whiteSpace=wrap;rounded=0;fontSize=9;fontColor=#007FFF;" parent="EOWlDWaqW3UNMmOw9FuK-13" vertex="1">
                    <mxGeometry x="15" y="78" width="85" height="30" as="geometry"/>
                </mxCell>
                <mxCell id="EOWlDWaqW3UNMmOw9FuK-20" value="vec2" style="text;html=1;align=center;verticalAlign=middle;whiteSpace=wrap;rounded=0;fontSize=9;" parent="EOWlDWaqW3UNMmOw9FuK-13" vertex="1">
                    <mxGeometry x="70" y="40" width="30" height="30" as="geometry"/>
                </mxCell>
                <mxCell id="EOWlDWaqW3UNMmOw9FuK-21" style="edgeStyle=orthogonalEdgeStyle;rounded=0;orthogonalLoop=1;jettySize=auto;html=1;endArrow=none;endFill=0;entryX=1;entryY=0.5;entryDx=0;entryDy=0;" parent="1" source="u02WTMG_zB_Rgp9r-icY-25" target="u02WTMG_zB_Rgp9r-icY-2" edge="1">
                    <mxGeometry relative="1" as="geometry">
                        <mxPoint x="520" y="230" as="targetPoint"/>
                        <Array as="points">
                            <mxPoint x="890" y="350"/>
                            <mxPoint x="890" y="225"/>
                        </Array>
                    </mxGeometry>
                </mxCell>
                <mxCell id="EOWlDWaqW3UNMmOw9FuK-23" value="write_addr" style="text;html=1;align=center;verticalAlign=middle;whiteSpace=wrap;rounded=0;fontSize=9;" parent="1" vertex="1">
                    <mxGeometry x="110" y="210" width="60" height="15" as="geometry"/>
                </mxCell>
                <mxCell id="EOWlDWaqW3UNMmOw9FuK-24" value="s_write_addr_stable" style="text;html=1;align=center;verticalAlign=middle;whiteSpace=wrap;rounded=0;fontSize=9;fontColor=#E014FF;" parent="1" vertex="1">
                    <mxGeometry x="530" y="202.5" width="120" height="30" as="geometry"/>
                </mxCell>
                <mxCell id="EOWlDWaqW3UNMmOw9FuK-26" style="edgeStyle=orthogonalEdgeStyle;rounded=0;orthogonalLoop=1;jettySize=auto;html=1;entryX=1;entryY=0.5;entryDx=0;entryDy=0;endArrow=none;endFill=0;exitX=1;exitY=0.5;exitDx=0;exitDy=0;" parent="1" source="EOWlDWaqW3UNMmOw9FuK-4" target="EOWlDWaqW3UNMmOw9FuK-20" edge="1">
                    <mxGeometry relative="1" as="geometry">
                        <Array as="points">
                            <mxPoint x="1280" y="225"/>
                            <mxPoint x="1280" y="905"/>
                        </Array>
                    </mxGeometry>
                </mxCell>
                <mxCell id="EOWlDWaqW3UNMmOw9FuK-30" style="edgeStyle=orthogonalEdgeStyle;rounded=0;orthogonalLoop=1;jettySize=auto;html=1;entryX=0;entryY=0.5;entryDx=0;entryDy=0;endArrow=none;endFill=0;exitX=1;exitY=0.5;exitDx=0;exitDy=0;" parent="1" source="EOWlDWaqW3UNMmOw9FuK-15" target="EOWlDWaqW3UNMmOw9FuK-6" edge="1">
                    <mxGeometry relative="1" as="geometry">
                        <Array as="points">
                            <mxPoint x="1230" y="865"/>
                            <mxPoint x="1230" y="350"/>
                            <mxPoint x="890" y="350"/>
                            <mxPoint x="890" y="225"/>
                        </Array>
                    </mxGeometry>
                </mxCell>
                <mxCell id="EOWlDWaqW3UNMmOw9FuK-32" value="" style="group" parent="1" vertex="1" connectable="0">
                    <mxGeometry x="690" y="850" width="80" height="108" as="geometry"/>
                </mxCell>
                <mxCell id="EOWlDWaqW3UNMmOw9FuK-33" value="" style="rounded=0;whiteSpace=wrap;html=1;" parent="EOWlDWaqW3UNMmOw9FuK-32" vertex="1">
                    <mxGeometry width="80" height="100" as="geometry"/>
                </mxCell>
                <mxCell id="EOWlDWaqW3UNMmOw9FuK-34" value="b" style="text;html=1;align=center;verticalAlign=middle;whiteSpace=wrap;rounded=0;fontSize=9;" parent="EOWlDWaqW3UNMmOw9FuK-32" vertex="1">
                    <mxGeometry x="60" width="20" height="30" as="geometry"/>
                </mxCell>
                <mxCell id="EOWlDWaqW3UNMmOw9FuK-35" value="y" style="text;html=1;align=center;verticalAlign=middle;whiteSpace=wrap;rounded=0;fontSize=9;" parent="EOWlDWaqW3UNMmOw9FuK-32" vertex="1">
                    <mxGeometry y="28" width="20" height="30" as="geometry"/>
                </mxCell>
                <mxCell id="EOWlDWaqW3UNMmOw9FuK-36" value="multiplexer" style="text;html=1;align=center;verticalAlign=middle;whiteSpace=wrap;rounded=0;fontSize=9;fontColor=#007FFF;" parent="EOWlDWaqW3UNMmOw9FuK-32" vertex="1">
                    <mxGeometry x="30" y="78" width="50" height="30" as="geometry"/>
                </mxCell>
                <mxCell id="EOWlDWaqW3UNMmOw9FuK-37" value="sel" style="text;html=1;align=center;verticalAlign=middle;whiteSpace=wrap;rounded=0;fontSize=9;" parent="EOWlDWaqW3UNMmOw9FuK-32" vertex="1">
                    <mxGeometry x="60" y="58" width="20" height="30" as="geometry"/>
                </mxCell>
                <mxCell id="EOWlDWaqW3UNMmOw9FuK-39" value="a" style="text;html=1;align=center;verticalAlign=middle;whiteSpace=wrap;rounded=0;fontSize=9;" parent="EOWlDWaqW3UNMmOw9FuK-32" vertex="1">
                    <mxGeometry width="20" height="30" as="geometry"/>
                </mxCell>
                <mxCell id="EOWlDWaqW3UNMmOw9FuK-47" value="" style="triangle;whiteSpace=wrap;html=1;" parent="EOWlDWaqW3UNMmOw9FuK-32" vertex="1">
                    <mxGeometry y="63" width="15" height="20" as="geometry"/>
                </mxCell>
                <mxCell id="EOWlDWaqW3UNMmOw9FuK-48" value="clock" style="text;html=1;align=center;verticalAlign=middle;whiteSpace=wrap;rounded=0;fontSize=9;" parent="EOWlDWaqW3UNMmOw9FuK-32" vertex="1">
                    <mxGeometry x="10" y="58" width="40" height="30" as="geometry"/>
                </mxCell>
                <mxCell id="EOWlDWaqW3UNMmOw9FuK-42" style="edgeStyle=orthogonalEdgeStyle;rounded=0;orthogonalLoop=1;jettySize=auto;html=1;entryX=1;entryY=0.5;entryDx=0;entryDy=0;endArrow=none;endFill=0;" parent="1" source="u02WTMG_zB_Rgp9r-icY-55" target="u02WTMG_zB_Rgp9r-icY-29" edge="1">
                    <mxGeometry relative="1" as="geometry">
                        <Array as="points">
                            <mxPoint x="850" y="785"/>
                            <mxPoint x="850" y="470"/>
                        </Array>
                    </mxGeometry>
                </mxCell>
                <mxCell id="EOWlDWaqW3UNMmOw9FuK-43" style="edgeStyle=orthogonalEdgeStyle;rounded=0;orthogonalLoop=1;jettySize=auto;html=1;entryX=0;entryY=0.5;entryDx=0;entryDy=0;endArrow=none;endFill=0;" parent="1" source="EOWlDWaqW3UNMmOw9FuK-35" target="u02WTMG_zB_Rgp9r-icY-50" edge="1">
                    <mxGeometry relative="1" as="geometry">
                        <Array as="points">
                            <mxPoint x="600" y="893"/>
                            <mxPoint x="600" y="745"/>
                        </Array>
                    </mxGeometry>
                </mxCell>
                <mxCell id="EOWlDWaqW3UNMmOw9FuK-51" style="edgeStyle=orthogonalEdgeStyle;rounded=0;orthogonalLoop=1;jettySize=auto;html=1;entryX=1;entryY=0.5;entryDx=0;entryDy=0;endArrow=none;endFill=0;fillColor=#f8cecc;strokeColor=#b85450;" parent="1" source="u02WTMG_zB_Rgp9r-icY-136" target="u02WTMG_zB_Rgp9r-icY-40" edge="1">
                    <mxGeometry relative="1" as="geometry">
                        <Array as="points">
                            <mxPoint x="350" y="815"/>
                            <mxPoint x="350" y="860"/>
                            <mxPoint x="200" y="860"/>
                            <mxPoint x="200" y="345"/>
                        </Array>
                    </mxGeometry>
                </mxCell>
                <mxCell id="EOWlDWaqW3UNMmOw9FuK-52" style="edgeStyle=orthogonalEdgeStyle;rounded=0;orthogonalLoop=1;jettySize=auto;html=1;entryX=0;entryY=0.75;entryDx=0;entryDy=0;endArrow=none;endFill=0;fillColor=#f8cecc;strokeColor=#b85450;" parent="1" source="EOWlDWaqW3UNMmOw9FuK-47" target="17" edge="1">
                    <mxGeometry relative="1" as="geometry">
                        <Array as="points">
                            <mxPoint x="520" y="920"/>
                            <mxPoint x="520" y="860"/>
                            <mxPoint x="200" y="860"/>
                            <mxPoint x="200" y="667"/>
                        </Array>
                    </mxGeometry>
                </mxCell>
                <mxCell id="EOWlDWaqW3UNMmOw9FuK-53" value="&lt;font color=&quot;#e014ff&quot;&gt;s_value_to_write&lt;/font&gt;" style="text;html=1;align=center;verticalAlign=middle;whiteSpace=wrap;rounded=0;fontSize=9;" parent="1" vertex="1">
                    <mxGeometry x="750" y="760" width="80" height="30" as="geometry"/>
                </mxCell>
                <mxCell id="EOWlDWaqW3UNMmOw9FuK-55" value="&lt;font color=&quot;#e014ff&quot;&gt;s_delayed_write_addr_stable&lt;/font&gt;" style="text;html=1;align=center;verticalAlign=middle;whiteSpace=wrap;rounded=0;fontSize=9;" parent="1" vertex="1">
                    <mxGeometry x="1120" y="200" width="130" height="30" as="geometry"/>
                </mxCell>
                <mxCell id="EOWlDWaqW3UNMmOw9FuK-58" value="&lt;font color=&quot;#e014ff&quot;&gt;s_aux_read_data&lt;/font&gt;" style="text;html=1;align=center;verticalAlign=middle;whiteSpace=wrap;rounded=0;fontSize=9;rotation=90;" parent="1" vertex="1">
                    <mxGeometry x="530" y="590" width="80" height="30" as="geometry"/>
                </mxCell>
                <mxCell id="EOWlDWaqW3UNMmOw9FuK-60" value="'0'" style="text;html=1;align=center;verticalAlign=middle;whiteSpace=wrap;rounded=0;fontSize=9;" parent="1" vertex="1">
                    <mxGeometry x="620" y="790" width="20" height="30" as="geometry"/>
                </mxCell>
                <mxCell id="EOWlDWaqW3UNMmOw9FuK-61" style="edgeStyle=orthogonalEdgeStyle;rounded=0;orthogonalLoop=1;jettySize=auto;html=1;entryX=1;entryY=0.5;entryDx=0;entryDy=0;endArrow=none;endFill=0;" parent="1" source="u02WTMG_zB_Rgp9r-icY-54" target="EOWlDWaqW3UNMmOw9FuK-60" edge="1">
                    <mxGeometry relative="1" as="geometry"/>
                </mxCell>
                <mxCell id="EOWlDWaqW3UNMmOw9FuK-63" style="edgeStyle=orthogonalEdgeStyle;rounded=0;orthogonalLoop=1;jettySize=auto;html=1;entryX=0;entryY=0.5;entryDx=0;entryDy=0;endArrow=none;endFill=0;" parent="1" source="EOWlDWaqW3UNMmOw9FuK-39" target="u02WTMG_zB_Rgp9r-icY-24" edge="1">
                    <mxGeometry relative="1" as="geometry">
                        <Array as="points">
                            <mxPoint x="560" y="865"/>
                            <mxPoint x="560" y="450"/>
                        </Array>
                    </mxGeometry>
                </mxCell>
                <mxCell id="EOWlDWaqW3UNMmOw9FuK-64" style="edgeStyle=orthogonalEdgeStyle;rounded=0;orthogonalLoop=1;jettySize=auto;html=1;entryX=1;entryY=0.5;entryDx=0;entryDy=0;endArrow=none;endFill=0;" parent="1" source="EOWlDWaqW3UNMmOw9FuK-34" target="u02WTMG_zB_Rgp9r-icY-55" edge="1">
                    <mxGeometry relative="1" as="geometry">
                        <Array as="points">
                            <mxPoint x="850" y="865"/>
                            <mxPoint x="850" y="785"/>
                        </Array>
                    </mxGeometry>
                </mxCell>
                <mxCell id="EOWlDWaqW3UNMmOw9FuK-67" value="&lt;font color=&quot;#e014ff&quot;&gt;s_adder_n_a&lt;/font&gt;" style="text;html=1;align=center;verticalAlign=middle;whiteSpace=wrap;rounded=0;fontSize=9;" parent="1" vertex="1">
                    <mxGeometry x="625" y="870" width="65" height="30" as="geometry"/>
                </mxCell>
                <mxCell id="EOWlDWaqW3UNMmOw9FuK-44" style="edgeStyle=orthogonalEdgeStyle;rounded=0;orthogonalLoop=1;jettySize=auto;html=1;entryX=1;entryY=0.5;entryDx=0;entryDy=0;endArrow=none;endFill=0;exitX=0;exitY=0.5;exitDx=0;exitDy=0;" parent="1" source="EOWlDWaqW3UNMmOw9FuK-16" target="EOWlDWaqW3UNMmOw9FuK-37" edge="1">
                    <mxGeometry relative="1" as="geometry">
                        <mxPoint x="1050" y="733" as="sourcePoint"/>
                    </mxGeometry>
                </mxCell>
                <mxCell id="EOWlDWaqW3UNMmOw9FuK-57" value="&lt;font color=&quot;#e014ff&quot;&gt;s_equal&lt;/font&gt;" style="text;html=1;align=center;verticalAlign=middle;whiteSpace=wrap;rounded=0;fontSize=9;" parent="1" vertex="1">
                    <mxGeometry x="980" y="840" width="60" height="30" as="geometry"/>
                </mxCell>
                <mxCell id="16" value="" style="group" vertex="1" connectable="0" parent="1">
                    <mxGeometry x="290" y="600" width="80" height="98" as="geometry"/>
                </mxCell>
                <mxCell id="17" value="" style="rounded=0;whiteSpace=wrap;html=1;" vertex="1" parent="16">
                    <mxGeometry width="80" height="90" as="geometry"/>
                </mxCell>
                <mxCell id="18" value="Q" style="text;html=1;align=center;verticalAlign=middle;whiteSpace=wrap;rounded=0;fontSize=9;" vertex="1" parent="16">
                    <mxGeometry x="50" y="10" width="30" height="30" as="geometry"/>
                </mxCell>
                <mxCell id="19" value="" style="triangle;whiteSpace=wrap;html=1;" vertex="1" parent="16">
                    <mxGeometry y="55" width="15" height="20" as="geometry"/>
                </mxCell>
                <mxCell id="20" value="D" style="text;html=1;align=center;verticalAlign=middle;whiteSpace=wrap;rounded=0;fontSize=9;" vertex="1" parent="16">
                    <mxGeometry y="10" width="20" height="30" as="geometry"/>
                </mxCell>
                <mxCell id="21" value="clock" style="text;html=1;align=center;verticalAlign=middle;whiteSpace=wrap;rounded=0;fontSize=9;movable=0;resizable=0;rotatable=0;deletable=0;editable=0;locked=1;connectable=0;" vertex="1" parent="16">
                    <mxGeometry x="10" y="50" width="40" height="30" as="geometry"/>
                </mxCell>
                <mxCell id="22" value="my_register" style="text;html=1;align=center;verticalAlign=middle;whiteSpace=wrap;rounded=0;fontSize=9;fontColor=#007FFF;" vertex="1" parent="16">
                    <mxGeometry x="25" y="68" width="55" height="30" as="geometry"/>
                </mxCell>
                <mxCell id="23" style="edgeStyle=orthogonalEdgeStyle;rounded=0;orthogonalLoop=1;jettySize=auto;html=1;endArrow=none;endFill=0;" edge="1" parent="1" source="20">
                    <mxGeometry relative="1" as="geometry">
                        <mxPoint x="62.5" y="625" as="targetPoint"/>
                        <mxPoint x="222.5" y="625" as="sourcePoint"/>
                    </mxGeometry>
                </mxCell>
                <mxCell id="24" value="&lt;div&gt;write_shift&lt;/div&gt;" style="text;html=1;align=center;verticalAlign=middle;whiteSpace=wrap;rounded=0;fontSize=9;" vertex="1" parent="1">
                    <mxGeometry x="112.5" y="600" width="60" height="30" as="geometry"/>
                </mxCell>
                <mxCell id="27" style="edgeStyle=none;html=1;exitX=1;exitY=0.5;exitDx=0;exitDy=0;endArrow=none;endFill=0;" edge="1" parent="1" source="18">
                    <mxGeometry relative="1" as="geometry">
                        <mxPoint x="449.9999999999999" y="625.1666666666667" as="targetPoint"/>
                    </mxGeometry>
                </mxCell>
            </root>
        </mxGraphModel>
    </diagram>
</mxfile>